<mxfile host="app.diagrams.net" modified="2023-05-18T06:48:28.108Z" agent="Mozilla/5.0 (Windows NT 10.0; Win64; x64) AppleWebKit/537.36 (KHTML, like Gecko) Chrome/104.0.0.0 Safari/537.36" version="21.2.7" etag="l7tZCWuSueqMPRQzVro6" type="github">
  <diagram name="第 1 页" id="URd7FnrQPqlfHge_deuO">
    <mxGraphModel>
      <root>
        <mxCell id="0" />
        <mxCell id="1" parent="0" />
      </root>
    </mxGraphModel>
  </diagram>
</mxfile>
